<svg width="122" height="25" viewBox="0 0 122 25" fill="none" xmlns="http://www.w3.org/2000/svg">
<g clip-path="url(#clip0_2595_643)">
<path fill-rule="evenodd" clip-rule="evenodd" d="M29.5129 11.0877C29.9753 11.8882 29.9753 12.8776 29.5129 13.6782L28.7645 14.9734L28.4568 15.5059L28.016 16.2687L27.2693 17.5639L26.5209 18.8592L25.8659 19.9943L25.7742 20.1544L25.0257 21.4497L24.9556 21.5702C24.7522 21.9246 24.4482 22.2124 24.0793 22.3869C24.0775 22.3887 24.0757 22.3887 24.0739 22.3905C23.8113 22.5182 23.545 22.637 23.2751 22.7503C22.7389 22.9734 22.1902 23.1695 21.627 23.3368C21.3608 23.4177 21.0909 23.4915 20.8174 23.5562C20.7742 23.5688 20.7292 23.5796 20.6843 23.5886C20.1211 23.7217 19.5472 23.8279 18.9624 23.9016H18.9606C18.6727 23.9394 18.3849 23.9682 18.0934 23.9916C18.0916 23.9916 18.0898 23.9916 18.088 23.9916C17.8595 24.0078 17.7084 23.7613 17.8217 23.5634L18.0934 23.0921L18.2931 22.7449L19.0416 21.4497L19.7901 20.1562L20.5385 18.8592L20.6843 18.6055L21.2852 17.5639L22.0337 16.2687L22.7821 14.9734L23.2751 14.1189L23.5288 13.6782L24.2773 12.3829L25.0257 11.0877L25.7742 9.79243L25.8659 9.63232L26.5209 8.49718C26.8537 7.92151 27.6849 7.92151 28.0178 8.49718L28.4568 9.25814L28.7645 9.79243L29.5129 11.0877Z" fill="white"/>
<path d="M25.0253 3.31397C25.4877 4.11451 25.4877 5.10393 25.0253 5.90447L24.2769 7.19972L23.5302 8.49496L23.2747 8.93571L22.7817 9.79021L22.0333 11.0855L21.2866 12.3807L20.6839 13.4223L20.5381 13.676L19.7897 14.9712L19.0412 16.2665L18.2927 17.5635L18.093 17.9089L17.5461 18.8569L16.7976 20.154L16.0509 21.4474L15.5022 22.3973L15.3025 22.7427C15.3025 22.7427 14.6357 23.8994 14.635 23.8994C14.6343 23.8994 14.6332 23.8994 14.6332 23.8994C14.0484 23.8257 13.4745 23.7195 12.9113 23.5864C12.8663 23.5774 12.8214 23.5666 12.7782 23.554C12.5047 23.4893 12.2348 23.4155 11.9685 23.3345C11.4054 23.1672 10.8566 22.9712 10.3205 22.7481C10.0506 22.6348 9.78432 22.516 9.52344 22.3901C9.1546 22.212 8.84694 21.9278 8.64183 21.5716L8.56986 21.4474L7.82319 20.1522L7.72963 19.9921L7.07473 18.8569L6.32626 17.5617L5.57959 16.2665L5.13879 15.5037L4.83112 14.9712L4.08266 13.676L3.33419 12.3807L2.58752 11.0855L2.54794 11.0171L1.83906 9.79021L1.09059 8.49496L0.343922 7.19972L0.275552 7.08098C0.0686441 6.72479 -0.0249142 6.31463 0.00567218 5.90447C0.0740417 5.01938 0.208982 4.15408 0.408693 3.31397C0.471665 3.04053 0.543633 2.76889 0.622797 2.50084C0.79732 1.8946 1.00783 1.30094 1.24892 0.723476L1.25072 0.719878C1.47922 0.169397 2.24028 0.120826 2.53715 0.637126L2.54794 0.656914V0.723476H2.58752L3.33419 2.01872L4.08266 3.31397L4.83112 4.60922L5.13879 5.14351L5.57779 5.90447L6.32626 7.19972L7.07473 8.49496L7.72963 9.63011L7.82139 9.79021L8.56986 11.0855L9.31833 12.3807L10.0668 13.676L10.3205 14.1167L10.8135 14.9712L11.5619 16.2665L11.7095 16.5219C11.9757 16.9842 12.645 16.9842 12.9113 16.5219L13.0589 16.2665L13.8055 14.973L14.554 13.676L15.3025 12.3825L15.5022 12.0353L16.0509 11.0855L16.7976 9.79021L17.5461 8.49496L18.093 7.54871L18.2945 7.19972L19.043 5.90447L19.7897 4.60922L20.5381 3.31397L20.6839 3.06212L21.2866 2.01872L22.0333 0.723476L22.2888 0.282732C22.5083 -0.096848 23.057 -0.096848 23.2747 0.282732L23.5284 0.723476L24.2769 2.01872L25.0253 3.31397Z" fill="white"/>
<path fill-rule="evenodd" clip-rule="evenodd" d="M33.5144 5.84476C33.5144 5.86455 33.5144 5.88614 33.5126 5.90593C33.5036 6.33588 33.3849 6.73884 33.1852 7.08964C32.7624 7.8398 31.9635 8.35071 31.0459 8.37229C31.0261 8.37409 31.0045 8.37409 30.9848 8.37409C30.9686 8.37409 30.9506 8.37409 30.9344 8.37229C30.5098 8.3651 30.1103 8.25356 29.7631 8.05927C29.0002 7.63832 28.4785 6.83419 28.4569 5.90593C28.4551 5.88614 28.4551 5.86455 28.4551 5.84476C28.4551 5.40042 28.5684 4.98486 28.7699 4.62327C29.1999 3.84252 30.0294 3.31543 30.9848 3.31543H31.0063C31.0207 3.31543 31.0333 3.31543 31.0459 3.31723C31.5011 3.32622 31.9275 3.45755 32.2928 3.67882C33.025 4.12136 33.5144 4.92549 33.5144 5.84476Z" fill="white"/>
</g>
<path d="M41.9405 23.8647L38.1387 11.4268H40.558L43.6685 21.6535L46.8309 11.4268H49.2503L45.4485 23.8647H41.9405Z" fill="white"/>
<path d="M53.8599 24.1239C52.9037 24.1239 52.0598 23.9194 51.3283 23.5106C50.6025 23.096 50.0322 22.5288 49.6175 21.809C49.2085 21.0835 49.004 20.2543 49.004 19.3214C49.004 18.3022 49.2056 17.4154 49.6088 16.6611C50.012 15.9067 50.5679 15.3223 51.2764 14.9077C51.9849 14.4873 52.8 14.2771 53.7217 14.2771C54.7009 14.2771 55.5333 14.5075 56.2188 14.9681C56.9042 15.4288 57.4111 16.0766 57.7395 16.9116C58.0678 17.7465 58.183 18.7283 58.0851 19.857H55.7608V18.9932C55.7608 18.0431 55.6082 17.3607 55.3029 16.9461C55.0033 16.5258 54.5108 16.3156 53.8254 16.3156C53.0247 16.3156 52.4342 16.5603 52.0541 17.0498C51.6797 17.5335 51.4924 18.2504 51.4924 19.2005C51.4924 20.07 51.6797 20.7437 52.0541 21.2217C52.4342 21.6939 52.9901 21.9299 53.7217 21.9299C54.1825 21.9299 54.5771 21.8292 54.9054 21.6276C55.2337 21.4261 55.4843 21.1353 55.6571 20.7552L58.0073 21.429C57.6559 22.2812 57.1001 22.9434 56.3397 23.4156C55.5851 23.8878 54.7585 24.1239 53.8599 24.1239ZM50.7666 19.857V18.1122H56.9532V19.857H50.7666Z" fill="white"/>
<path d="M60.0361 23.8647V14.5363H62.1098V16.8166L61.8851 16.5229C62.0061 16.2004 62.1674 15.9067 62.369 15.6419C62.5706 15.377 62.8183 15.1582 63.1121 14.9854C63.3367 14.8472 63.5815 14.7407 63.8465 14.6658C64.1115 14.5852 64.3851 14.5363 64.6673 14.519C64.9496 14.4959 65.2318 14.5017 65.5141 14.5363V16.7302C65.2549 16.6496 64.9525 16.6236 64.6068 16.6524C64.267 16.6755 63.9588 16.7532 63.6823 16.8857C63.4058 17.0123 63.1725 17.1822 62.9824 17.3953C62.7924 17.6026 62.6483 17.8502 62.5504 18.1381C62.4525 18.4202 62.4035 18.7398 62.4035 19.0969V23.8647H60.0361Z" fill="white"/>
<path d="M70.4664 24.1239C69.2913 24.1239 68.3409 23.859 67.6151 23.3292C66.895 22.7937 66.4572 22.0394 66.3017 21.0662L68.7038 20.7034C68.8017 21.1411 69.0177 21.4837 69.3518 21.7313C69.6916 21.9789 70.1208 22.1027 70.6392 22.1027C71.0655 22.1027 71.3938 22.0221 71.6242 21.8608C71.8546 21.6939 71.9698 21.4635 71.9698 21.1698C71.9698 20.9856 71.9238 20.8387 71.8316 20.7293C71.7394 20.6142 71.5321 20.5019 71.2095 20.3925C70.8927 20.2831 70.3973 20.1391 69.7233 19.9606C68.963 19.7648 68.3553 19.546 67.9002 19.3042C67.4451 19.0623 67.1168 18.7744 66.9152 18.4404C66.7136 18.1007 66.6128 17.6918 66.6128 17.2139C66.6128 16.615 66.7654 16.0968 67.0707 15.6591C67.376 15.2157 67.8052 14.876 68.3581 14.6399C68.9169 14.3981 69.5736 14.2771 70.3282 14.2771C71.0597 14.2771 71.7077 14.3894 72.2722 14.614C72.8368 14.8386 73.2918 15.1582 73.6374 15.5728C73.9888 15.9874 74.2048 16.4768 74.2855 17.0411L71.8834 17.473C71.8431 17.1275 71.6933 16.854 71.4341 16.6524C71.1749 16.4509 70.8235 16.3329 70.38 16.2983C69.948 16.2695 69.5995 16.3271 69.3345 16.4711C69.0753 16.615 68.9457 16.8223 68.9457 17.093C68.9457 17.2542 69.0004 17.3895 69.1099 17.4989C69.2251 17.6083 69.4584 17.7206 69.8097 17.8358C70.1669 17.9509 70.7083 18.1007 71.4341 18.2849C72.1426 18.4692 72.71 18.6851 73.1363 18.9327C73.5683 19.1746 73.8822 19.4683 74.0781 19.8138C74.2739 20.1535 74.3719 20.5652 74.3719 21.0489C74.3719 22.0048 74.0263 22.7563 73.335 23.3033C72.6438 23.8503 71.6876 24.1239 70.4664 24.1239Z" fill="white"/>
<path d="M80.4698 24.1239C79.5309 24.1239 78.7072 23.9137 77.9987 23.4933C77.2902 23.073 76.7372 22.4943 76.3397 21.7572C75.948 21.0144 75.7522 20.1621 75.7522 19.2005C75.7522 18.2273 75.9538 17.3722 76.357 16.6352C76.7602 15.8923 77.3161 15.3136 78.0246 14.899C78.7331 14.4844 79.5482 14.2771 80.4698 14.2771C81.4088 14.2771 82.2325 14.4873 82.941 14.9077C83.6553 15.328 84.2111 15.9096 84.6086 16.6524C85.0061 17.3895 85.2048 18.2389 85.2048 19.2005C85.2048 20.1679 85.0032 21.023 84.6 21.7658C84.2025 22.5029 83.6466 23.0816 82.9324 23.502C82.2239 23.9166 81.403 24.1239 80.4698 24.1239ZM80.4698 21.9299C81.2244 21.9299 81.7861 21.6766 82.1547 21.1698C82.5291 20.6574 82.7164 20.0009 82.7164 19.2005C82.7164 18.3713 82.5263 17.7091 82.1461 17.2139C81.7717 16.7187 81.2129 16.4711 80.4698 16.4711C79.9572 16.4711 79.5367 16.5862 79.2083 16.8166C78.88 17.0469 78.6352 17.3665 78.4739 17.7753C78.3184 18.1842 78.2406 18.6592 78.2406 19.2005C78.2406 20.0355 78.4278 20.7005 78.8022 21.1958C79.1824 21.6852 79.7383 21.9299 80.4698 21.9299Z" fill="white"/>
<path d="M89.2904 23.8647L85.9033 14.5363H88.2535L90.4655 20.9971L92.6774 14.5363H95.0276L91.6406 23.8647H89.2904Z" fill="white"/>
<path d="M98.6581 24.1239C97.9899 24.1239 97.4225 23.9972 96.9559 23.7438C96.4951 23.4847 96.1437 23.1421 95.9018 22.716C95.6656 22.2841 95.5475 21.809 95.5475 21.2908C95.5475 20.8589 95.6138 20.4645 95.7462 20.1074C95.8787 19.7504 96.0919 19.4366 96.3856 19.166C96.6852 18.8896 97.0855 18.6592 97.5867 18.475C97.9323 18.3483 98.3441 18.236 98.8222 18.1381C99.3003 18.0402 99.8418 17.9481 100.447 17.8617C101.051 17.7696 101.717 17.6688 102.443 17.5594L101.596 18.0258C101.596 17.473 101.463 17.067 101.198 16.8079C100.933 16.5488 100.49 16.4192 99.8677 16.4192C99.5221 16.4192 99.1621 16.5027 98.7877 16.6697C98.4133 16.8367 98.1512 17.1333 98.0014 17.5594L95.8759 16.8857C96.112 16.114 96.5556 15.4864 97.2065 15.0027C97.8574 14.519 98.7445 14.2771 99.8677 14.2771C100.691 14.2771 101.423 14.4038 102.062 14.6572C102.702 14.9105 103.186 15.3482 103.514 15.9701C103.698 16.3156 103.808 16.6611 103.842 17.0066C103.877 17.3521 103.894 17.7379 103.894 18.164V23.8647H101.838V21.9472L102.132 22.3445C101.676 22.9722 101.184 23.4271 100.654 23.7093C100.13 23.9857 99.4645 24.1239 98.6581 24.1239ZM99.1592 22.2754C99.5912 22.2754 99.9541 22.2006 100.248 22.0509C100.547 21.8954 100.784 21.7198 100.956 21.524C101.135 21.3282 101.256 21.1641 101.319 21.0316C101.44 20.7783 101.509 20.4846 101.527 20.1506C101.55 19.8109 101.561 19.5287 101.561 19.3042L102.252 19.4769C101.555 19.5921 100.991 19.69 100.559 19.7706C100.127 19.8454 99.7784 19.9145 99.5135 19.9779C99.2485 20.0412 99.0152 20.1103 98.8136 20.1852C98.5832 20.2773 98.396 20.3781 98.252 20.4875C98.1137 20.5911 98.01 20.7063 97.9409 20.833C97.8775 20.9597 97.8459 21.1007 97.8459 21.2562C97.8459 21.4693 97.8977 21.6535 98.0014 21.809C98.1108 21.9587 98.2635 22.0739 98.4593 22.1545C98.6552 22.2351 98.8885 22.2754 99.1592 22.2754Z" fill="white"/>
<path d="M111.74 23.8647C111.095 23.9857 110.461 24.0375 109.839 24.0202C109.223 24.0087 108.67 23.9022 108.18 23.7006C107.696 23.4933 107.327 23.1622 107.074 22.7073C106.844 22.2812 106.723 21.8493 106.711 21.4117C106.7 20.9683 106.694 20.4673 106.694 19.9088V11.945H109.044V19.7706C109.044 20.1333 109.047 20.4616 109.053 20.7552C109.064 21.0432 109.125 21.2735 109.234 21.4462C109.441 21.7745 109.773 21.953 110.228 21.9818C110.683 22.0106 111.187 21.9875 111.74 21.9127V23.8647ZM105.104 16.3501V14.5363H111.74V16.3501H105.104Z" fill="white"/>
<path d="M117.651 24.1239C116.694 24.1239 115.85 23.9194 115.119 23.5106C114.393 23.096 113.823 22.5288 113.408 21.809C112.999 21.0835 112.795 20.2543 112.795 19.3214C112.795 18.3022 112.996 17.4154 113.399 16.6611C113.803 15.9067 114.359 15.3223 115.067 14.9077C115.776 14.4873 116.591 14.2771 117.512 14.2771C118.492 14.2771 119.324 14.5075 120.009 14.9681C120.695 15.4288 121.202 16.0766 121.53 16.9116C121.858 17.7465 121.974 18.7283 121.876 19.857H119.551V18.9932C119.551 18.0431 119.399 17.3607 119.093 16.9461C118.794 16.5258 118.301 16.3156 117.616 16.3156C116.815 16.3156 116.225 16.5603 115.845 17.0498C115.47 17.5335 115.283 18.2504 115.283 19.2005C115.283 20.07 115.47 20.7437 115.845 21.2217C116.225 21.6939 116.781 21.9299 117.512 21.9299C117.973 21.9299 118.368 21.8292 118.696 21.6276C119.024 21.4261 119.275 21.1353 119.448 20.7552L121.798 21.429C121.447 22.2812 120.891 22.9434 120.13 23.4156C119.376 23.8878 118.549 24.1239 117.651 24.1239ZM114.557 19.857V18.1122H120.744V19.857H114.557Z" fill="white"/>
<defs>
<clipPath id="clip0_2595_643">
<rect width="33.5132" height="23.9943" fill="white"/>
</clipPath>
</defs>
</svg>
